<svg xmlns="http://www.w3.org/2000/svg" shape-rendering="geometricPrecision" text-rendering="geometricPrecision" image-rendering="optimizeQuality" fill-rule="evenodd" clip-rule="evenodd" viewBox="0 0 512 512"><path d="M256 0c70.426 0 134.432 28.793 180.819 75.181C483.207 121.568 512 185.574 512 256c0 70.419-28.793 134.432-75.181 180.819C390.432 483.207 326.426 512 256 512c-70.419 0-134.432-28.793-180.819-75.181C28.793 390.432 0 326.419 0 256c0-70.419 28.793-134.432 75.181-180.819C121.568 28.793 185.581 0 256 0zm-49.893 210.248c-3.825.163-6.542 1.432-8.109 3.818-4.258 6.379 1.55 12.688 5.584 17.127 11.439 12.556 39.477 42.733 45.122 49.373 4.277 4.731 10.369 4.731 14.65 0 5.831-6.812 35.277-38.364 46.15-50.574 3.774-4.25 8.441-10.044 4.512-15.926-1.604-2.386-4.295-3.655-8.119-3.818h-23.223v-57.525c0-6.128-5.029-11.161-11.161-11.161H240.5c-6.136 0-11.161 5.026-11.161 11.161v57.525h-23.232zm-74.67 63.529c-3.554-14.697 18.708-20.095 22.258-5.387 1.485 6.135 2.761 12.301 3.99 18.491 2.291 11.567 3.986 18.823 8.257 22.437 4.525 3.828 13.08 5.148 29.474 5.148h124.106c15.134 0 23.033-1.445 27.189-5.202 3.997-3.617 5.563-10.697 7.594-21.564l.044-.213c1.195-6.389 2.43-12.779 3.966-19.097 3.55-14.695 25.788-9.317 22.258 5.364l-.006.023c-1.449 6.011-2.603 12.045-3.73 18.119l-.003.024c-2.988 16.011-5.439 26.993-13.646 34.705-8.084 7.601-20.748 10.817-43.666 10.817H195.416c-23.961 0-37.125-2.884-45.596-10.387-8.68-7.685-11.31-18.847-14.664-35.778-1.161-5.851-2.315-11.699-3.719-17.5zM256 24.604c127.271 0 231.396 104.125 231.396 231.396 0 127.271-104.125 231.396-231.396 231.396-127.267 0-231.396-104.125-231.396-231.396C24.604 128.729 128.733 24.604 256 24.604z"/></svg>